# xmcd CD database file
#
# Track frame offsets:
#	150
#	14220
#	44011
#	63653
#	81162
#	100067
#	119659
#	133918
#	168798
#	184949
#	204259
#	229700
#	259472
#	284730
#	316042
#
# Disc length: 4502 seconds
#
# Revision: 1
# Processed by: cddbd v1.5.2PL0 Copyright (c) Steve Scherf et al.
# Submitted via: CDex 1.51
#
DISCID=e511940f
DTITLE=Rita Falk - Sauerkraut-Koma
DYEAR=2013
DGENRE=Hörbuch
TTITLE0=Sauerkraut-Koma - 39
TTITLE1=Sauerkraut-Koma - 40
TTITLE2=Sauerkraut-Koma - 41
TTITLE3=Sauerkraut-Koma - 42
TTITLE4=Sauerkraut-Koma - 43
TTITLE5=Sauerkraut-Koma - 44
TTITLE6=Sauerkraut-Koma - 45
TTITLE7=Sauerkraut-Koma - 46
TTITLE8=Sauerkraut-Koma - 47
TTITLE9=Sauerkraut-Koma - 48
TTITLE10=Sauerkraut-Koma - 49
TTITLE11=Sauerkraut-Koma - 50
TTITLE12=Sauerkraut-Koma - 51
TTITLE13=Sauerkraut-Koma - 52
TTITLE14=Sauerkraut-Koma - 53
EXTD=YEAR: 2013
EXTT0=
EXTT1=
EXTT2=
EXTT3=
EXTT4=
EXTT5=
EXTT6=
EXTT7=
EXTT8=
EXTT9=
EXTT10=
EXTT11=
EXTT12=
EXTT13=
EXTT14=
PLAYORDER=
